<svg width="19" height="18" viewBox="0 0 19 18" fill="none" xmlns="http://www.w3.org/2000/svg">
    <path
        d="M1.96296 16.8103C1.89724 16.8103 1.83104 16.8048 1.7648 16.7935C1.45916 16.7416 1.19192 16.5737 1.01248 16.3207C0.831081 16.0651 0.761482 15.7543 0.816401 15.4457C0.871281 15.1371 1.04384 14.8695 1.30228 14.6921L3.88779 13.1716L4.85423 11.238C4.93099 11.0844 5.11763 11.0219 5.27159 11.0989C5.42515 11.1757 5.48746 11.3626 5.41066 11.5163L4.40307 13.5321C4.37623 13.5858 4.33431 13.6306 4.28243 13.6611L1.63592 15.2167C1.53448 15.2873 1.4544 15.4114 1.42888 15.5547C1.40336 15.6979 1.43572 15.8421 1.51992 15.9609C1.60312 16.0783 1.7272 16.1561 1.86908 16.1803C2.01084 16.2037 2.15388 16.1718 2.27128 16.0885L5.19263 14.1927C5.32103 14.1094 5.42358 13.9921 5.48894 13.8536L6.20078 12.3458C6.27402 12.1904 6.45938 12.1236 6.6149 12.1973C6.77014 12.2707 6.83674 12.456 6.76338 12.6114L6.0515 14.1192C5.9367 14.3623 5.75674 14.5682 5.53122 14.7146L2.62047 16.6032C2.43064 16.738 2.20064 16.8103 1.96296 16.8103Z"
        fill="black" stroke="black" stroke-width="0.3" />
    <path
        d="M9.9741 17.4415C9.88298 17.4415 9.79126 17.431 9.70074 17.4096C9.05522 17.2572 8.9003 16.7322 8.80395 16.2517L8.21091 12.8392L5.73476 10.8187C5.03552 10.2478 4.9094 9.23336 5.44764 8.50884L8.76942 4.19133C8.87414 4.05513 9.0693 4.02949 9.20562 4.13445C9.34178 4.23917 9.36718 4.43445 9.26246 4.57065L5.94387 8.88404C5.60756 9.33676 5.68716 9.97679 6.12819 10.3368L8.69427 12.4307C8.75223 12.478 8.79122 12.5447 8.80398 12.6185L9.41538 16.1374C9.51706 16.6443 9.62326 16.7521 9.82202 16.7991C10.0048 16.842 10.1656 16.8109 10.2987 16.7159C10.4225 16.6276 10.5018 16.4979 10.5241 16.3486L10.0915 12.1945C10.0143 11.9018 9.8813 11.693 9.6495 11.4993L7.95227 10.0822C7.88835 10.0288 7.84851 9.95199 7.84167 9.86891C7.83487 9.78579 7.86163 9.70343 7.91619 9.64035L9.47842 7.82904L8.89998 6.81304C8.81551 6.66468 8.86646 6.47601 9.01394 6.39025C9.16154 6.30449 9.3505 6.35365 9.4377 6.50033L10.6684 8.5732C10.6901 8.6098 10.7327 8.63068 10.774 8.62628L13.1904 8.37892C13.3763 8.36 13.5191 8.21068 13.53 8.02404C13.5367 7.91188 13.4935 7.80324 13.4115 7.72612C13.3294 7.64896 13.2183 7.61228 13.1069 7.6258L11.384 7.83172C11.2264 7.85004 11.0815 7.74896 11.0446 7.59552L10.4608 5.16625C10.4207 4.99921 10.5235 4.83129 10.6906 4.79121C10.8575 4.75157 11.0255 4.85389 11.0657 5.02097L11.5848 7.18124L13.033 7.00808C13.3277 6.97308 13.6212 7.06932 13.8379 7.2732C14.0543 7.47696 14.1685 7.76392 14.1511 8.06064C14.122 8.55344 13.7446 8.94756 13.2537 8.99792L10.8372 9.24528C10.5543 9.27412 10.2785 9.13508 10.1335 8.89088L9.8279 8.37632L8.59359 9.80735L10.0482 11.0219C10.385 11.3033 10.5921 11.6342 10.7001 12.0636C10.7037 12.0779 10.7063 12.0925 10.7078 12.1072L11.1463 16.3191C11.1485 16.34 11.1486 16.3611 11.1464 16.3821C11.1129 16.7193 10.9355 17.0257 10.6599 17.2224C10.4583 17.3662 10.2182 17.4415 9.9741 17.4415Z"
        fill="black" stroke="black" stroke-width="0.3" />
    <path
        d="M11.1425 4.02089C10.9653 4.02089 10.7871 3.99341 10.6135 3.93778C10.1733 3.7971 9.81443 3.4933 9.60263 3.08242C9.39099 2.67162 9.35199 2.20298 9.49283 1.76294C9.63351 1.32274 9.93727 0.963825 10.3482 0.752026C10.7589 0.540627 11.228 0.501267 11.6677 0.642226C12.1079 0.782906 12.4668 1.08667 12.6786 1.49758C12.8902 1.90834 12.9292 2.37702 12.7884 2.81706C12.6477 3.25726 12.3439 3.61618 11.933 3.82794C11.6844 3.95598 11.4145 4.02089 11.1425 4.02089ZM11.1394 1.18142C10.9651 1.18142 10.7924 1.22294 10.6331 1.3051C10.3701 1.44066 10.1754 1.67058 10.0853 1.95246C9.99515 2.23434 10.0202 2.53446 10.1558 2.79746C10.2913 3.0605 10.5213 3.25518 10.8031 3.3453C11.0851 3.43542 11.3851 3.41066 11.6481 3.27482C11.9112 3.13922 12.1059 2.90934 12.196 2.62746C12.2861 2.34558 12.2611 2.04546 12.1255 1.78242C11.9899 1.51938 11.76 1.32474 11.4781 1.23462C11.367 1.19918 11.2529 1.18142 11.1394 1.18142Z"
        fill="black" stroke="black" stroke-width="0.3" />
    <path
        d="M14.9244 14.6158C14.8814 14.6158 14.8381 14.6118 14.795 14.604C14.6081 14.5699 14.4458 14.465 14.3378 14.3088C14.3378 14.3087 12.8926 12.2177 12.8926 12.2177C12.6698 11.8951 12.7509 11.4513 13.0733 11.2283L15.939 9.24798C16.2614 9.02518 16.7055 9.10582 16.9284 9.42854L18.3735 11.5198C18.4815 11.6761 18.5222 11.865 18.4881 12.0518C18.454 12.2387 18.3491 12.401 18.1929 12.509L15.3271 14.4895C15.2069 14.5726 15.0674 14.6158 14.9244 14.6158ZM14.8496 13.955C14.8669 13.9801 14.8903 13.989 14.9068 13.992C14.9232 13.995 14.9483 13.9952 14.9734 13.9777L17.8392 11.9973C17.8642 11.9799 17.8731 11.9565 17.8761 11.94C17.8791 11.9234 17.8791 11.8985 17.8618 11.8735L16.4167 9.78222C16.389 9.7421 16.3331 9.73202 16.2926 9.75974L13.427 11.7401C13.3867 11.768 13.3765 11.8236 13.4044 11.8641L14.8495 13.9551V13.955H14.8496Z"
        fill="black" stroke="black" stroke-width="0.3" />
    <path
        d="M13.4576 10.2851C13.3589 10.2851 13.2619 10.2382 13.2015 10.1508C13.1038 10.0095 13.1391 9.81586 13.2805 9.71818L14.4531 8.90774C14.5941 8.81006 14.7879 8.84542 14.8858 8.98686C14.9835 9.12814 14.9481 9.32186 14.8067 9.41954L13.6341 10.2299C13.5802 10.2672 13.5185 10.2851 13.4576 10.2851Z"
        fill="black" stroke="black" stroke-width="0.3" />
    <path
        d="M3.41163 8.19239H0.811039C0.63924 8.19239 0.5 8.05315 0.5 7.88135C0.5 7.70955 0.63924 7.57031 0.811039 7.57031H3.41163C3.58343 7.57031 3.72267 7.70955 3.72267 7.88135C3.72267 8.05315 3.58343 8.19239 3.41163 8.19239Z"
        fill="black" stroke="black" stroke-width="0.3" />
    <path
        d="M4.71176 6.18897H2.11133C1.93953 6.18897 1.80029 6.04973 1.80029 5.87793C1.80029 5.70613 1.93953 5.56689 2.11133 5.56689H4.7118C4.8836 5.56689 5.02284 5.70613 5.02284 5.87793C5.02284 6.04973 4.8836 6.18897 4.71176 6.18897Z"
        fill="black" stroke="black" stroke-width="0.3" />
    <path
        d="M6.0121 4.18507H3.41162C3.23983 4.18507 3.10059 4.04583 3.10059 3.87403C3.10059 3.70223 3.23983 3.56299 3.41162 3.56299H6.0121C6.1839 3.56299 6.32313 3.70223 6.32313 3.87403C6.32313 4.04583 6.1839 4.18507 6.0121 4.18507Z"
        fill="black" stroke="black" stroke-width="0.3" />
</svg>
    