<svg width="18" height="22" viewBox="0 0 18 22" fill="none" xmlns="http://www.w3.org/2000/svg">
    <path
        d="M4.42868 5.57143C4.42868 8.09616 6.47537 10.1429 9.0001 10.1429C11.5248 10.1429 13.5715 8.09616 13.5715 5.57143C13.5715 3.0467 11.5248 1 9.0001 1"
        stroke="black" stroke-width="1.5" stroke-linecap="round" />
    <path
        d="M1 16.9255C1 15.9422 1.61812 15.0651 2.5441 14.7344V14.7344C6.71891 13.2434 11.2811 13.2434 15.4559 14.7344V14.7344C16.3819 15.0651 17 15.9422 17 16.9255V18.6941C17 19.9112 15.922 20.8461 14.7172 20.674L12.8184 20.4028C10.2856 20.0409 7.71435 20.0409 5.18162 20.4028L3.28284 20.674C2.07798 20.8461 1 19.9112 1 18.6941V16.9255Z"
        stroke="black" stroke-width="1.5" />
</svg>
    